<?xml version="1.0" encoding="UTF-8"?><svg id="a" xmlns="http://www.w3.org/2000/svg" viewBox="0 0 120 120"><defs><style>.b{fill:#fff;}</style></defs><path class="b" d="M16.15,0H103.05c.3,.08,.59,.18,.89,.24,6.08,1.12,10.75,6.56,10.75,12.71,.02,35.29,.01,70.58,0,105.87,0,.28-.06,.56-.14,1.18-9.73-8.39-19.23-16.58-28.74-24.78l-.18,.09c1.06,3.49,2.13,6.98,3.23,10.6h-1.38c-23.03,0-46.07,0-69.1,0-.59,0-1.17,0-1.76-.03-5.63-.27-10.6-4.35-11.58-9.86-.42-2.36-.31-4.82-.31-7.24-.02-25.22,0-50.44-.02-75.66,0-4.61,1.76-8.34,5.63-10.8,1.73-1.1,3.85-1.57,5.79-2.32Zm18.85,36.23c2.18-1.89,4.63-3.31,7.27-4.37,2.65-1.07,5.36-1.96,8.04-2.93l.03-.3c-.56-.07-1.13-.24-1.69-.2-5.81,.49-11.05,2.57-15.81,5.89-.4,.28-.77,.68-.99,1.11-5.07,9.87-8.04,20.31-8.78,31.42-.18,2.68,.79,4.43,2.64,6.05,4.53,3.95,9.87,5.67,15.78,5.91,.27,.01,.64-.11,.81-.31,1.26-1.51,2.48-3.05,3.77-4.65-4.1-1.35-7.7-3.28-10.39-6.64,7.68,3.48,15.47,6.42,24.09,6.35,8.59-.08,16.58-2.25,23.98-6.64-2.77,3.41-6.5,5.25-10.7,6.62,1.17,1.44,2.26,2.71,3.24,4.05,.56,.76,1.21,.94,2.1,.88,6.84-.5,12.79-2.93,17.6-7.93,.53-.56,.76-1.08,.73-1.84-.33-11.79-3.48-22.83-8.87-33.27-.17-.33-.42-.68-.72-.89-4.84-3.41-10.15-5.61-16.12-5.97-.55-.03-1.13,.33-1.7,.51l.08,.34c1.28,.43,2.57,.83,3.83,1.31,1.31,.5,2.61,1.03,3.88,1.62,1.23,.58,2.45,1.21,3.62,1.9,1.16,.69,2.27,1.48,3.4,2.22-16.39-7.27-32.73-7.39-49.15-.24Z"/><path class="b" d="M54.6,57.18c-.02,3.7-2.89,6.64-6.47,6.62-3.54-.02-6.45-3.06-6.41-6.71,.04-3.7,3.03-6.69,6.63-6.64,3.48,.06,6.27,3.06,6.25,6.73Z"/><path class="b" d="M64.83,57.1c.02-3.73,2.97-6.71,6.58-6.64,3.46,.06,6.33,3.12,6.29,6.72-.03,3.67-2.95,6.65-6.49,6.62-3.58-.02-6.4-2.99-6.38-6.69Z"/></svg>