<?xml version="1.0" encoding="UTF-8"?><svg id="a" xmlns="http://www.w3.org/2000/svg" viewBox="0 0 120 120"><defs><style>.b{fill:#fff;}</style></defs><path class="b" d="M48.92,69.88c-2.8,0-5.15-2.25-5.15-5.03s2.35-5.1,5.15-5.1,5.08,2.33,5.08,5.1-2.27,5.03-5.08,5.03Zm20.53,6.89c-1.8,1.78-4.88,2.65-9.41,2.65-.01,0-.03,0-.04,0-.01,0-.03,0-.04,0-4.53,0-7.61-.87-9.41-2.65-.8-.79-2.1-.79-2.9,0-.8,.79-.8,2.08,0,2.87,2.61,2.58,6.63,3.84,12.3,3.84,.01,0,.03,0,.04,0,.01,0,.03,0,.04,0,5.67,0,9.7-1.26,12.31-3.84,.8-.79,.8-2.08,0-2.87-.8-.79-2.1-.79-2.9,0Zm15.54-37.15c1.9,0,3.44-1.53,3.44-3.41s-1.54-3.41-3.44-3.41-3.44,1.53-3.44,3.41,1.54,3.41,3.44,3.41Zm-13.84,20.12c-2.8,0-5.16,2.33-5.16,5.1s2.36,5.03,5.16,5.03,5.08-2.25,5.08-5.03-2.27-5.1-5.08-5.1Zm48.34,.25c0,32.86-26.64,59.5-59.5,59.5S.5,92.86,.5,60,27.14,.5,60,.5s59.5,26.64,59.5,59.5Zm-22-.67c0-4.93-4.04-8.93-9.01-8.93-2.15,0-4.13,.75-5.68,2-5.5-3.42-12.47-5.49-19.95-5.92l3.9-12.22,10.72,2.5c.28,3.87,3.54,6.93,7.52,6.93s7.54-3.35,7.54-7.47-3.38-7.47-7.54-7.47c-2.91,0-5.43,1.64-6.69,4.03l-12.45-2.91c-1.04-.24-2.1,.35-2.42,1.36l-4.84,15.16c-8.06,.2-15.63,2.26-21.53,5.89-1.53-1.19-3.45-1.9-5.54-1.9-4.97,0-9.01,4.01-9.01,8.93,0,3.04,1.55,5.74,3.9,7.35-.1,.71-.15,1.42-.15,2.14,0,6.16,3.61,11.88,10.17,16.12,6.29,4.07,14.61,6.31,23.43,6.31s17.14-2.24,23.43-6.31c6.56-4.24,10.17-9.97,10.17-16.12,0-.66-.04-1.31-.13-1.96,2.51-1.59,4.18-4.37,4.18-7.53Z"/></svg>