<?xml version="1.0" encoding="UTF-8"?><svg id="a" xmlns="http://www.w3.org/2000/svg" viewBox="0 0 120 120"><defs><style>.b{fill:#fff;}</style></defs><path class="b" d="M60,.84c-77.77,1.33-77.76,117.01,0,118.33,77.77-1.33,77.76-117.01,0-118.33Zm11.3,94.04c-5.95,.25,.71-14.92-4.83-18.18,11.32,1.52,22.52-16.04,12.62-27.29,.37-.91,1.59-4.55-.35-9.48,0,0-2.99-.96-9.8,3.67-5.71-1.6-12.16-1.6-17.87,0-6.82-4.63-9.81-3.67-9.81-3.67-1.94,4.93-.72,8.57-.35,9.48-9.9,11.23,1.29,28.79,12.58,27.32-1.02,.9-1.94,2.47-2.27,4.79-9.34,4.07-7.52-4.15-15.85-6.67-4.73,.64,1.64,1.48,3.71,7.42,0,0,2.09,6.97,12.02,4.8-.61,4.37,1.95,7.62-2.39,7.82-14.18-4.74-24.4-18.16-24.4-33.99,0-19.79,15.98-35.83,35.68-35.83,39.67-1.17,48.65,58.67,11.3,69.81Z"/></svg>