<?xml version="1.0" encoding="UTF-8"?><svg id="a" xmlns="http://www.w3.org/2000/svg" viewBox="0 0 120 120"><defs><style>.b{fill:#fff;}</style></defs><path class="b" d="M60,.84C27.32,.84,.84,27.32,.84,60s26.49,59.16,59.16,59.16,59.16-26.49,59.16-59.16S92.68,.84,60,.84Zm26.44,45.26c.02,.6,.04,1.2,.04,1.81,0,18.49-13.72,39.8-38.82,39.8-7.7,0-14.87-2.32-20.91-6.28,1.07,.13,2.15,.19,3.26,.19,6.39,0,12.28-2.24,16.94-5.99-5.97-.11-11.01-4.15-12.74-9.71,.83,.16,1.69,.25,2.57,.25,1.25,0,2.45-.16,3.59-.49-6.24-1.28-10.95-6.94-10.95-13.72v-.17c1.84,1.04,3.95,1.68,6.18,1.75-3.66-2.51-6.07-6.79-6.07-11.64,0-2.56,.67-4.97,1.85-7.04,6.73,8.47,16.78,14.04,28.12,14.62-.23-1.02-.35-2.09-.35-3.19,0-7.72,6.11-13.99,13.64-13.99,3.93,0,7.47,1.7,9.96,4.41,3.11-.62,6.03-1.79,8.67-3.39-1.02,3.27-3.18,6.01-6,7.74,2.76-.34,5.39-1.09,7.83-2.2-1.82,2.81-4.14,5.27-6.8,7.24Z"/></svg>