<?xml version="1.0" encoding="UTF-8"?><svg id="a" xmlns="http://www.w3.org/2000/svg" viewBox="0 0 120 120"><defs><style>.b{fill:#fff;}</style></defs><path class="b" d="M0,0V120H120V0H0ZM98.5,26.12c-2.08,1.99-4.19,3.96-6.24,5.99-.33,.33-.58,.92-.58,1.39-.02,14.28,0,28.57-.02,42.85,0,1.13,.28,1.93,1.12,2.7,1.66,1.52,3.21,3.17,4.86,4.71,.59,.55,.87,1.12,.66,1.97h-30.07c-.15-.72-.07-1.28,.52-1.82,1.87-1.74,3.68-3.55,5.53-5.32,.51-.48,.74-1.02,.74-1.73,0-11.43,0-22.86,0-34.28,0-.1-.01-.19-.04-.53-.19,.41-.29,.61-.37,.82-5.51,13.94-11.02,27.87-16.49,41.82-.29,.74-.62,.97-1.42,1.02-1.06,.06-1.5-.36-1.91-1.27-6.3-13.79-12.63-27.57-18.96-41.35-.13-.29-.27-.58-.59-.86v.74c0,9.05,0,18.09,0,27.14,0,.5,0,1-.02,1.5-.03,1.05,.31,1.96,.97,2.77,2.56,3.09,5.1,6.19,7.68,9.25,.5,.6,.7,1.18,.49,1.97H21.57c-.13-.67-.07-1.25,.42-1.83,2.56-3.05,5.08-6.14,7.63-9.2,.78-.94,1.16-1.97,1.05-3.18-.03-.32-.02-.65-.02-.98,0-11.08,0-22.15,0-33.23,0-.89-.3-1.64-.88-2.33-2.34-2.78-4.67-5.56-6.96-8.39-.3-.37-.3-.98-.48-1.6,.47-.02,.74-.04,1-.04,6.89,0,13.78,0,20.68-.02,.59,0,.87,.17,1.12,.71,5.5,12.07,11.01,24.13,16.53,36.19,.11,.25,.23,.49,.4,.85,.79-1.97,1.55-3.84,2.3-5.72,4.19-10.42,8.38-20.84,12.55-31.27,.23-.59,.53-.76,1.14-.76,6.52,.02,13.03,.01,19.55,.01,.3,0,.6-.02,.9-.04v1.35Z"/></svg>